Coordinates
version=1
nRows=10
nColumns=34
inDegrees=yes

Units are S.I. units (second, meters, Newtons, ...)
If the header above contains a line with 'inDegrees', this indicates whether rotational values are in degrees (yes) or radians (no).

endheader
time	pelvis_tilt	pelvis_list	pelvis_rotation	pelvis_tx	pelvis_ty	pelvis_tz	hip_flexion_r	hip_adduction_r	hip_rotation_r	knee_angle_r	ankle_angle_r	subtalar_angle_r	mtp_angle_r	hip_flexion_l	hip_adduction_l	hip_rotation_l	knee_angle_l	ankle_angle_l	subtalar_angle_l	mtp_angle_l	lumbar_extension	lumbar_bending	lumbar_rotation	arm_flex_r	arm_add_r	arm_rot_r	elbow_flex_r	pro_sup_r	arm_flex_l	arm_add_l	arm_rot_l	elbow_flex_l	pro_sup_l
      0.00000000	     -0.58381811	     -0.43030347	     16.37365814	     -0.09671349	      1.30543539	     -0.07700762	      0.05310006	     -0.41360808	      1.21425701	      6.56556482	     14.09954225	     -7.39729119	      0.00000000	      1.10336774	     -2.29863589	      3.24530795	      4.78079311	      4.91015973	     -8.26440281	      0.00000000	     -4.12426027	      1.34737791	      1.10392414	      5.69119882	     -5.00965732	     17.59317709	     25.78351672	     77.93292719	      8.08918966	     -6.93564152	     25.28870901	     21.99611158	     67.50883577
      0.01666670	     -0.40954160	     -0.59451282	     16.11404036	     -0.09677288	      1.30556265	     -0.07701614	     -0.51596065	      0.02205155	      1.98940243	      5.71372127	     14.49124266	     -7.23583000	      0.00000000	      0.54574739	     -2.53520713	      3.40508405	      4.10148332	      4.55347038	     -8.50170460	      0.00000000	     -3.95272524	      1.73216272	      0.84900835	      5.90151618	     -5.22565642	     17.46474663	     25.85897876	     77.98892187	      8.01550842	     -6.57700928	     25.16193540	     22.41737297	     67.54282017
      0.03333330	     -0.10228186	     -0.29017148	     15.81309717	     -0.09585877	      1.30594531	     -0.07663283	     -1.33105911	     -0.12904553	      2.05824637	      5.03969682	     13.89904153	     -8.52583363	      0.00000000	     -0.09477871	     -2.37494385	      3.03899455	      3.74756702	      4.93261302	     -7.94491409	      0.00000000	     -4.91942476	      1.24157240	      0.98740990	      6.15389025	     -4.72760786	     16.41819700	     26.08173299	     78.60684246	      8.15643561	     -6.51382117	     24.36298093	     22.87964026	     67.93058417
      0.05000000	      0.55221709	      0.07661030	     15.54634746	     -0.09658768	      1.30456309	     -0.07609038	     -2.18777032	     -0.38970132	      1.84919869	      4.61916261	     14.03477128	     -8.36065610	      0.00000000	     -1.37213780	     -2.21403936	      2.63777269	      2.84605236	      5.44269429	     -6.92611340	      0.00000000	     -6.12807378	      0.91399530	      1.32061575	      5.81184985	     -4.08431425	     11.99381758	     27.15628763	     82.03647782	      8.44284611	     -6.30777575	     21.61739372	     23.03034115	     70.86892972
      0.06666670	      0.55440857	     -0.03116854	     15.15941887	     -0.09549023	      1.30576018	     -0.07567981	     -2.17039597	     -0.30371610	      1.92382859	      4.54058946	     14.01822056	     -8.38554188	      0.00000000	     -1.70813885	     -2.31218886	      2.70938000	      2.40560748	      5.82309143	     -7.04304498	      0.00000000	     -6.08830223	      0.98519381	      1.48563400	      5.73136358	     -3.86839227	     11.99194733	     27.11004356	     82.15792743	      8.40863432	     -6.22796513	     21.55678347	     23.02279341	     70.96106614
      0.08333330	      1.20554906	      0.01625825	     14.69516312	     -0.09572609	      1.30709393	     -0.07552463	     -3.05932905	     -0.23619172	      2.45469947	      4.17019167	     12.87410953	     -9.88856069	      0.00000000	     -2.76904262	     -2.40848136	      2.01574520	      1.92847503	      6.53363333	     -5.60490577	      0.00000000	     -7.03706046	      1.31396656	      1.78915653	      5.53838777	     -3.59168381	      8.58315425	     27.88022179	     88.52034380	      8.28540163	     -5.53678822	     16.60350476	     23.21791499	     76.58843427
      0.10000000	      1.21626694	      0.13662434	     14.28104177	     -0.09628368	      1.30957267	     -0.07456308	     -3.01189765	     -0.37576020	      2.62381988	      4.14284793	     13.10050136	     -9.45191286	      0.00000000	     -2.90198651	     -2.26077233	      1.97472787	      1.87387807	      6.52552130	     -6.31719549	      0.00000000	     -7.11197785	      1.09675163	      2.55708534	      5.54536573	     -3.50109349	      8.76729172	     27.42554740	     89.09055241	      8.44314406	     -5.41534028	     16.46618426	     23.46094412	     77.16843495
      0.11666670	      1.21050078	      0.13583058	     14.13057173	     -0.09679936	      1.30958432	     -0.07413722	     -2.98619397	     -0.39921837	      2.55524128	      4.09054684	     13.03916774	     -9.46098087	      0.00000000	     -2.91885905	     -2.25593465	      1.99823314	      1.85096027	      6.55554825	     -6.32565051	      0.00000000	     -7.12667735	      1.12505001	      2.54389865	      5.55746076	     -3.47064065	      8.77557859	     27.43345364	     89.10702258	      8.46988686	     -5.39869296	     16.45971764	     23.46717292	     77.18662115
      0.13333330	      1.24240043	      0.17178274	     13.91682809	     -0.09643198	      1.30582016	     -0.07448792	     -2.98018822	     -0.47944294	      2.34491313	      3.92304636	     12.44651274	     -9.39832678	      0.00000000	     -3.03597016	     -2.20903024	      1.87128595	      1.76263996	      6.76547276	     -6.55042044	      0.00000000	     -7.26217719	      1.10317522	      2.64854427	      5.70595717	     -3.48195462	      8.83512914	     27.49261727	     89.25726829	      8.45347830	     -5.33913518	     16.37394818	     23.48106163	     77.35524916
      0.15000000	      1.24981157	      0.15866712	     13.90075330	     -0.09666378	      1.30693404	     -0.07489486	     -2.96519515	     -0.51229785	      2.33566771	      3.90404483	     12.44476292	     -9.40453521	      0.00000000	     -3.04469926	     -2.22288998	      1.87401159	      1.77033619	      6.76298048	     -6.55007217	      0.00000000	     -7.26666341	      1.10689615	      2.65176755	      5.70646452	     -3.47922435	      8.83699024	     27.49353414	     89.25979779	      8.45253990	     -5.33977974	     16.37237830	     23.48101882	     77.35810752
